<?xml version="1.0" encoding="UTF-8"?>
<svg id="Layer_1" data-name="Layer 1" xmlns="http://www.w3.org/2000/svg" xmlns:xlink="http://www.w3.org/1999/xlink" viewBox="0 0 1049.37 996.51">
  <defs>
    <style>
      .cls-1 {
        fill: #dcdad9;
      }

      .cls-2 {
        fill: #f7a490;
      }

      .cls-3 {
        fill: url(#linear-gradient-8);
      }

      .cls-4 {
        fill: url(#linear-gradient-7);
      }

      .cls-5 {
        fill: url(#linear-gradient-5);
      }

      .cls-6 {
        fill: url(#linear-gradient-6);
      }

      .cls-7 {
        fill: url(#linear-gradient-9);
      }

      .cls-8 {
        fill: url(#linear-gradient-4);
      }

      .cls-9 {
        fill: url(#linear-gradient-3);
      }

      .cls-10 {
        fill: url(#linear-gradient-2);
      }

      .cls-11 {
        fill: url(#linear-gradient);
      }

      .cls-12 {
        fill: #870b11;
      }

      .cls-13 {
        fill: #114074;
      }

      .cls-14 {
        fill: #357fb5;
      }

      .cls-15 {
        fill: #1f3365;
      }

      .cls-16 {
        fill: #e4302c;
      }

      .cls-17 {
        fill: #fff;
      }

      .cls-18 {
        fill: #fae1d5;
      }

      .cls-19 {
        fill: url(#linear-gradient-10);
      }

      .cls-20 {
        fill: url(#linear-gradient-11);
      }

      .cls-21 {
        fill: url(#linear-gradient-12);
      }

      .cls-22 {
        fill: url(#linear-gradient-13);
      }

      .cls-23 {
        fill: #77bee2;
      }

      .cls-24 {
        fill: #195183;
      }
    </style>
    <linearGradient id="linear-gradient" x1="975.79" y1="471.69" x2="677.9" y2="556.84" gradientUnits="userSpaceOnUse">
      <stop offset="0" stop-color="#eb3431"/>
      <stop offset="1" stop-color="#b1121b"/>
    </linearGradient>
    <linearGradient id="linear-gradient-2" x1="74.13" y1="472.12" x2="367.86" y2="557.17" gradientUnits="userSpaceOnUse">
      <stop offset="0" stop-color="#ed3532"/>
      <stop offset="1" stop-color="#b6131c"/>
    </linearGradient>
    <linearGradient id="linear-gradient-3" x1="120.13" y1="356.64" x2="427.66" y2="464.54" gradientUnits="userSpaceOnUse">
      <stop offset="0" stop-color="#f48066"/>
      <stop offset="1" stop-color="#e32e2c"/>
    </linearGradient>
    <linearGradient id="linear-gradient-4" x1="928.74" y1="367.53" x2="610.48" y2="443.74" gradientUnits="userSpaceOnUse">
      <stop offset="0" stop-color="#f3836b"/>
      <stop offset="1" stop-color="#e32e2c"/>
    </linearGradient>
    <linearGradient id="linear-gradient-5" x1="587.98" y1="95.74" x2="579.69" y2="418.86" gradientUnits="userSpaceOnUse">
      <stop offset="0" stop-color="#ed7861"/>
      <stop offset="1" stop-color="#bf1920"/>
    </linearGradient>
    <linearGradient id="linear-gradient-6" x1="458.5" y1="107.5" x2="470.65" y2="418.42" gradientUnits="userSpaceOnUse">
      <stop offset="0" stop-color="#f29378"/>
      <stop offset="1" stop-color="#c61e22"/>
    </linearGradient>
    <linearGradient id="linear-gradient-7" x1="489.84" y1="306.87" x2="502.42" y2="445.79" gradientUnits="userSpaceOnUse">
      <stop offset="0" stop-color="#f26551"/>
      <stop offset="1" stop-color="#da2829"/>
    </linearGradient>
    <linearGradient id="linear-gradient-8" x1="628.2" y1="507.34" x2="394.65" y2="591.13" gradientUnits="userSpaceOnUse">
      <stop offset="0" stop-color="#e29926"/>
      <stop offset="1" stop-color="#dc8117"/>
    </linearGradient>
    <linearGradient id="linear-gradient-9" x1="453.46" y1="720.67" x2="524.34" y2="991.87" gradientUnits="userSpaceOnUse">
      <stop offset="0" stop-color="#114a89"/>
      <stop offset="1" stop-color="#3789b9"/>
    </linearGradient>
    <linearGradient id="linear-gradient-10" x1="647.52" y1="638.32" x2="842.44" y2="868.69" gradientUnits="userSpaceOnUse">
      <stop offset="0" stop-color="#1b5b98"/>
      <stop offset="1" stop-color="#67b7dd"/>
    </linearGradient>
    <linearGradient id="linear-gradient-11" x1="400.64" y1="641.25" x2="206.97" y2="869.17" gradientUnits="userSpaceOnUse">
      <stop offset="0" stop-color="#1d609b"/>
      <stop offset="1" stop-color="#68b7dd"/>
    </linearGradient>
    <linearGradient id="linear-gradient-12" x1="599.94" y1="655.2" x2="674.26" y2="722.98" gradientUnits="userSpaceOnUse">
      <stop offset="0" stop-color="#2067a1"/>
      <stop offset="1" stop-color="#4290bf"/>
    </linearGradient>
    <linearGradient id="linear-gradient-13" x1="593.01" y1="454.34" x2="399.28" y2="549.71" gradientUnits="userSpaceOnUse">
      <stop offset="0" stop-color="#fcca51"/>
      <stop offset="1" stop-color="#f5ad38"/>
    </linearGradient>
  </defs>
  <g id="Generative_Object" data-name="Generative Object">
    <g>
      <path class="cls-11" d="M726.26,615.61c-2.26-1.67-5.84-1.63-8.05-2.68-15.21-7.26-40.73-13.34-57.67-18.78l135.46-127.41c4.01-2.38,7.47-5.54,11.4-8.05l184.41-61.7c15.96-4.7,31.28-9.76,47.61-13.41,2.61-.58,4.97.14,4.69-4.02,1.95.18,6.89-1.2,4.69,2.68l-322.56,233.37Z"/>
      <path class="cls-10" d="M67.73,401.02c50.67,15.95,143.15,41.19,185.09,67.06l135.46,126.07c-18.37,5.78-36.97,11.96-54.99,18.78-3.38.24-6.41,1.16-9.39,2.68-96.08-70.82-193.18-140.35-289.7-210.57,4.42-3.31-25.98-18.45-15.42-20.12,15.62,7.32,32.6,10.95,48.95,16.09Z"/>
      <path class="cls-1" d="M991.82,396.99l-184.41,61.7c-3.93,2.51-7.39,5.66-11.4,8.05-53.44,31.75-111.05,80.83-162.29,118.03-20.95,15.21-43.29,28.72-63.04,45.6-6.22,3.81-11.48,8.1-17.44,12.07-60.66,40.44-136.21,93.14-191.79,139.48-3.16,2.64-9.46,6.41-13.41,8.05.35-6.86,4.58-12.58,6.71-18.78.6,5.43,10.17-5.4,10.73-6.04,12.47-14.05,21.91-31.2,34.87-44.93l321.89-236.05c6.65-.67,58.19-15.91,63.71-18.78,3.71-1.92,3.98-4.33,4.69-8.05,48.94-3.02,147.84-44.64,201.18-60.35Z"/>
      <path class="cls-17" d="M429.85,457.35c68.81.31,137.74.35,206.54,0,50.02-.25,104.94,3.04,154.24,0-.71,3.71-.99,6.12-4.69,8.05-5.52,2.86-57.06,18.11-63.71,18.78h-394.98l-2.01,2.01c3.86,2.01,7.35,4.7,10.73,7.38,36.23,28.73,76.43,52.63,111.32,83.15l-46.94,143.51c-12.96,13.73-22.4,30.88-34.87,44.93-.56.63-10.13,11.46-10.73,6.04,17.59-51.3,33.8-103.68,49.62-155.58,2.84-9.33,8.21-18.23,9.39-28.17,2.48-.92-2.69-4.7-3.35-5.36-26.82-26.93-122.43-92.32-157.59-114-41.94-25.87-134.42-51.11-185.09-67.06,5.48-.14,14.14,2.35,19.45,4.02,40.73,12.86,116.97,46.98,154.24,52.31,49.45,7.06,134.8-.24,188.44,0Z"/>
      <g>
        <path class="cls-9" d="M466.07,450.64l-2.01,2.68-93.88,1.34,59.68,2.68c-53.64-.24-138.99,7.06-188.44,0-37.27-5.32-113.51-39.45-154.24-52.31-5.31-1.68-13.96-4.16-19.45-4.02-16.35-5.15-33.33-8.78-48.95-16.09-10.56,1.66,19.84,16.8,15.42,20.12-11.44-8.32-23.76-15.89-34.2-25.48l401.69-2.68v4.69l64.38,69.07Z"/>
        <path class="cls-8" d="M1044.12,379.56c.27,4.16-2.08,3.44-4.69,4.02-16.33,3.65-31.65,8.71-47.61,13.41-53.34,15.71-152.24,57.34-201.18,60.35-49.3,3.04-104.22-.25-154.24,0v-1.34c2.6-.12,5.74.62,8.05-.67-2.43-1.97-8.78-2.76-8.05.67-15.43.74-34.01-5.79-51.64-1.34-3.35-1.28-2.52-2.64-3.35-4.02,8.42-10.78,66.71-67.08,67.06-75.11-.58,4.04,3.58,2.6,6.04,2.68,124.39,4.2,268.79-9.78,389.62,1.34Z"/>
        <path class="cls-5" d="M648.47,375.54c-.35,8.03-58.64,64.33-67.06,75.11-8.27-13.68-28.13-107.51-33.53-130.1-5.93-24.81-19.98-65.22-22.8-87.85-6.03-48.44.07-123.54,0-175.03-.02-11.35.38-22.85,0-34.2-.08-2.45,1.35-6.62-2.68-6.04.05-.88-.07-1.8,0-2.68.04-.45.88-.16,1.34-6.71.18-2.6-.66-5.73.67-8.05l124.06,375.54Z"/>
        <path class="cls-6" d="M522.4,14.75c-.07.88.05,1.8,0,2.68-.82,13.16.17,26.98,0,40.24-.67,51.76,6.89,125.58,1.34,173.69-3.99,34.64-25.34,96.65-34.87,133.45-6.38,24.62-13.28,51.87-20.12,73.1-.54,1.66,1.06,12.34-2.68,12.74l-64.38-69.07v-4.69c16.47-45.38,29.39-98.14,42.92-129.43,30.01-67.26,43.18-171.17,76.45-234.04l1.34,1.34Z"/>
        <path class="cls-17" d="M522.4,14.75l-1.34-1.34c.93-1.75,1.8-3.58,2.68-5.36-.46,6.55-1.31,6.26-1.34,6.71Z"/>
        <path class="cls-4" d="M547.88,320.55c5.4,22.59,25.26,116.42,33.53,130.1.84,1.38,0,2.75,3.35,4.02,17.62-4.45,36.21,2.08,51.64,1.34v1.34c-68.81.35-137.74.31-206.54,0l-59.68-2.68,93.88-1.34,2.01-2.68c3.74-.4,2.15-11.08,2.68-12.74,6.84-21.22,13.74-48.47,20.12-73.1,5.29,4.69,6.72-4.7,8.05-8.72,10.74-32.39,14.56-71.18,26.15-103.94,3.59-.63,5.1,7.44,6.04,10.06,5.83,16.35,7.26,41.05,13.41,56.33,1.58,3.93,1.97,2.71,5.36,2.01Z"/>
        <path class="cls-16" d="M636.4,456.01c-.73-3.43,5.62-2.64,8.05-.67-2.31,1.29-5.45.55-8.05.67Z"/>
        <path class="cls-2" d="M525.08,57.67c.07,51.49-6.03,126.59,0,175.03,2.82,22.63,16.87,63.04,22.8,87.85-3.39.7-3.78,1.92-5.36-2.01-6.15-15.28-7.58-39.98-13.41-56.33-.93-2.62-2.44-10.68-6.04-10.06-11.6,32.76-15.42,71.55-26.15,103.94-1.33,4.02-2.75,13.41-8.05,8.72,9.53-36.8,30.88-98.81,34.87-133.45,5.55-48.1-2.02-121.93-1.34-173.69h2.68Z"/>
        <path class="cls-18" d="M525.08,57.67h-2.68c.17-13.25-.82-27.07,0-40.24,4.04-.58,2.6,3.58,2.68,6.04.38,11.35-.02,22.85,0,34.2Z"/>
      </g>
      <path class="cls-12" d="M660.54,594.15c-8.46-2.72-16.95-5.56-25.48-8.05-.25-.68.07-1.53-1.34-1.34,51.24-37.2,108.84-86.27,162.29-118.03l-135.46,127.41Z"/>
      <path class="cls-12" d="M413.76,587.45c-8.6,1.61-17.16,4.09-25.48,6.71l-135.46-126.07c35.16,21.68,130.77,87.07,157.59,114,.66.67,5.83,4.44,3.35,5.36Z"/>
      <path class="cls-3" d="M722.24,484.17l-321.89,236.05,46.94-143.51c71.97-28.48,151.5-46.06,223.31-73.77,7.06-2.72,14.07-6.14,20.12-10.73l-354.75,1.34c-3.38-2.68-6.86-5.36-10.73-7.38l2.01-2.01h394.98Z"/>
      <g>
        <path class="cls-7" d="M549.22,679.99c18.28,14.49,37.39,27.97,56.33,41.58,37.72,27.1,81.01,54.33,109.98,89.86,41.12,50.43,97.01,123.9,131.44,178.38.62.97,4.81,6.58.67,6.71l-323.23-234.71-323.23,234.71.67-5.36,146.19-201.18c3.95-1.64,10.25-5.41,13.41-8.05-.42,4.31,2.59,2.22,4.69,1.34,5.36-2.24,13.45-6.54,18.78-9.39,54.79-29.34,108.38-61.84,161.61-93.88h2.68Z"/>
        <path class="cls-19" d="M726.26,615.61l120.71,374.19c-34.43-54.48-90.32-127.95-131.44-178.38-2.74-9.45-12.06-16.18-16.09-24.81-18.45-39.52-34.03-106.93-48.28-150.88-2.17-6.7-4.52-13.4-6.71-20.12l73.77-2.68c2.21,1.05,5.79,1.01,8.05,2.68Z"/>
        <path class="cls-20" d="M333.29,612.93c2.24-.16,12.81,2.67,15.42,2.68,18.56.09,37.22-.64,55.66,0-15.82,51.9-32.03,104.28-49.62,155.58-2.13,6.2-6.35,11.92-6.71,18.78l-146.19,201.18,122.05-375.54c2.98-1.52,6.01-2.44,9.39-2.68Z"/>
        <path class="cls-21" d="M641.76,622.32c1.22,5.73,3.64,11.76,5.36,17.44,13.79,45.5,30.91,90.04,42.92,136.13l-84.5-54.32c-18.94-13.6-38.05-27.09-56.33-41.58l92.54-57.67Z"/>
        <path class="cls-13" d="M546.54,679.99c-53.23,32.04-106.83,64.54-161.61,93.88-5.32,2.85-13.41,7.15-18.78,9.39-2.1.88-5.11,2.97-4.69-1.34,55.58-46.35,131.13-99.04,191.79-139.48l-25.48,20.79,18.78,16.76Z"/>
        <path class="cls-24" d="M641.76,606.22c.85,2.66.81,6.42,1.34,8.05-4.91-.44-2.04,4.76-1.34,8.05l-92.54,57.67h-2.68l-18.78-16.76,25.48-20.79c5.95-3.97,11.21-8.26,17.44-12.07,4.04-2.47,23.37-15.76,24.81-16.09,7.53-1.77,37.2,2.85,41.58,0,1.76-1.15-1.38-8.53,4.69-8.05Z"/>
        <path class="cls-23" d="M715.53,811.43c-28.97-35.53-72.25-62.76-109.98-89.86l84.5,54.32c-12-46.09-29.13-90.63-42.92-136.13l4.02-4.02c14.25,43.96,29.83,111.36,48.28,150.88,4.03,8.64,13.36,15.36,16.09,24.81Z"/>
        <path class="cls-15" d="M660.54,594.15c16.95,5.44,42.46,11.52,57.67,18.78l-73.77,2.68c-.6-1.86-1.31-1.25-1.34-1.34-.53-1.63-.49-5.38-1.34-8.05-2.11-6.58-4.36-13.63-6.71-20.12,8.54,2.49,17.02,5.33,25.48,8.05Z"/>
        <path class="cls-14" d="M643.1,614.27c.03.09.74-.52,1.34,1.34,2.18,6.71,4.53,13.42,6.71,20.12l-4.02,4.02c-1.72-5.68-4.15-11.71-5.36-17.44-.7-3.28-3.57-8.49,1.34-8.05Z"/>
        <path class="cls-13" d="M413.76,587.45c-1.18,9.94-6.55,18.84-9.39,28.17-18.44-.64-37.1.09-55.66,0-2.61-.01-13.18-2.84-15.42-2.68,18.02-6.82,36.61-12.99,54.99-18.78,8.33-2.62,16.88-5.1,25.48-6.71Z"/>
        <path class="cls-13" d="M633.72,584.76c1.41-.19,1.1.66,1.34,1.34,2.35,6.49,4.59,13.54,6.71,20.12-6.08-.49-2.94,6.9-4.69,8.05-4.38,2.85-34.04-1.77-41.58,0-1.44.34-20.77,13.62-24.81,16.09,19.75-16.88,42.09-30.39,63.04-45.6Z"/>
      </g>
      <path class="cls-22" d="M447.29,576.72c-34.89-30.53-75.09-54.42-111.32-83.15l354.75-1.34c-6.05,4.59-13.06,8.01-20.12,10.73-71.81,27.7-151.34,45.28-223.31,73.77Z"/>
    </g>
  </g>
</svg>